<mxfile host="app.diagrams.net" modified="2023-10-13T02:41:12.996Z" agent="Mozilla/5.0 (Windows NT 10.0; Win64; x64) AppleWebKit/537.36 (KHTML, like Gecko) Chrome/117.0.0.0 Safari/537.36" etag="kjqSEAQ_P-vBxkcA4Iu4" version="22.0.4" type="github">
  <diagram name="Página-1" id="17HlKtqKw3yNXeSiIhbI">
    <mxGraphModel dx="1434" dy="841" grid="1" gridSize="10" guides="1" tooltips="1" connect="1" arrows="1" fold="1" page="1" pageScale="1" pageWidth="827" pageHeight="1169" math="0" shadow="0">
      <root>
        <mxCell id="0" />
        <mxCell id="1" parent="0" />
        <mxCell id="NbrCQVKAj3Hku4sAN9eA-8" value="" style="endArrow=none;html=1;rounded=0;entryX=0.5;entryY=1;entryDx=0;entryDy=0;exitX=0.558;exitY=0.033;exitDx=0;exitDy=0;exitPerimeter=0;labelPosition=center;verticalLabelPosition=middle;align=center;verticalAlign=middle;" edge="1" parent="1" source="NbrCQVKAj3Hku4sAN9eA-7" target="NbrCQVKAj3Hku4sAN9eA-1">
          <mxGeometry width="50" height="50" relative="1" as="geometry">
            <mxPoint x="390" y="560" as="sourcePoint" />
            <mxPoint x="440" y="510" as="targetPoint" />
          </mxGeometry>
        </mxCell>
        <mxCell id="NbrCQVKAj3Hku4sAN9eA-1" value="inicio" style="ellipse;whiteSpace=wrap;html=1;" vertex="1" parent="1">
          <mxGeometry x="354" y="20" width="120" height="80" as="geometry" />
        </mxCell>
        <mxCell id="NbrCQVKAj3Hku4sAN9eA-2" value="declarar-usuario, user,password,pass" style="rounded=0;whiteSpace=wrap;html=1;" vertex="1" parent="1">
          <mxGeometry x="354" y="150" width="120" height="60" as="geometry" />
        </mxCell>
        <mxCell id="NbrCQVKAj3Hku4sAN9eA-4" value="&amp;quot;digita tu usuario&amp;quot;" style="shape=parallelogram;perimeter=parallelogramPerimeter;fixedSize=1;verticalAlign=middle;horizontal=1;whiteSpace=wrap;html=1;" vertex="1" parent="1">
          <mxGeometry x="336" y="280" width="146" height="70" as="geometry" />
        </mxCell>
        <mxCell id="NbrCQVKAj3Hku4sAN9eA-5" value="leer usuario" style="rounded=0;whiteSpace=wrap;html=1;" vertex="1" parent="1">
          <mxGeometry x="346" y="410" width="120" height="60" as="geometry" />
        </mxCell>
        <mxCell id="NbrCQVKAj3Hku4sAN9eA-6" value="digita tu password" style="shape=parallelogram;perimeter=parallelogramPerimeter;whiteSpace=wrap;html=1;fixedSize=1;" vertex="1" parent="1">
          <mxGeometry x="330" y="520" width="146" height="70" as="geometry" />
        </mxCell>
        <mxCell id="NbrCQVKAj3Hku4sAN9eA-7" value="lleer password" style="rounded=0;whiteSpace=wrap;html=1;" vertex="1" parent="1">
          <mxGeometry x="336" y="640" width="120" height="60" as="geometry" />
        </mxCell>
        <mxCell id="NbrCQVKAj3Hku4sAN9eA-9" value="si usuario == user and&amp;nbsp;&lt;br&gt;passward == pass" style="rhombus;whiteSpace=wrap;html=1;" vertex="1" parent="1">
          <mxGeometry x="328" y="780" width="156" height="150" as="geometry" />
        </mxCell>
        <mxCell id="NbrCQVKAj3Hku4sAN9eA-11" value="" style="endArrow=none;html=1;rounded=0;exitX=0.5;exitY=0;exitDx=0;exitDy=0;entryX=0.583;entryY=1.033;entryDx=0;entryDy=0;entryPerimeter=0;" edge="1" parent="1" source="NbrCQVKAj3Hku4sAN9eA-9" target="NbrCQVKAj3Hku4sAN9eA-7">
          <mxGeometry width="50" height="50" relative="1" as="geometry">
            <mxPoint x="390" y="760" as="sourcePoint" />
            <mxPoint x="440" y="710" as="targetPoint" />
          </mxGeometry>
        </mxCell>
        <mxCell id="NbrCQVKAj3Hku4sAN9eA-12" value="no" style="endArrow=classic;html=1;rounded=0;" edge="1" parent="1">
          <mxGeometry relative="1" as="geometry">
            <mxPoint x="484" y="854.5" as="sourcePoint" />
            <mxPoint x="640" y="855" as="targetPoint" />
          </mxGeometry>
        </mxCell>
        <mxCell id="NbrCQVKAj3Hku4sAN9eA-14" value="" style="endArrow=classic;html=1;rounded=0;exitX=0;exitY=0.5;exitDx=0;exitDy=0;" edge="1" parent="1" source="NbrCQVKAj3Hku4sAN9eA-9">
          <mxGeometry relative="1" as="geometry">
            <mxPoint x="220" y="854.5" as="sourcePoint" />
            <mxPoint x="200" y="855" as="targetPoint" />
          </mxGeometry>
        </mxCell>
        <mxCell id="NbrCQVKAj3Hku4sAN9eA-15" value="si" style="edgeLabel;resizable=0;html=1;align=center;verticalAlign=middle;" connectable="0" vertex="1" parent="NbrCQVKAj3Hku4sAN9eA-14">
          <mxGeometry relative="1" as="geometry" />
        </mxCell>
        <mxCell id="NbrCQVKAj3Hku4sAN9eA-17" value="&quot;bienvenido&quot;" style="rounded=0;whiteSpace=wrap;html=1;" vertex="1" parent="1">
          <mxGeometry x="80" y="830" width="120" height="60" as="geometry" />
        </mxCell>
        <mxCell id="NbrCQVKAj3Hku4sAN9eA-18" value="&quot;¿Que haces aqui?&quot;" style="rounded=0;whiteSpace=wrap;html=1;" vertex="1" parent="1">
          <mxGeometry x="640" y="830" width="120" height="60" as="geometry" />
        </mxCell>
        <mxCell id="NbrCQVKAj3Hku4sAN9eA-19" value="fin&amp;nbsp;" style="ellipse;whiteSpace=wrap;html=1;" vertex="1" parent="1">
          <mxGeometry x="349" y="1030" width="120" height="80" as="geometry" />
        </mxCell>
        <mxCell id="NbrCQVKAj3Hku4sAN9eA-20" value="" style="endArrow=none;html=1;rounded=0;entryX=-0.025;entryY=0.65;entryDx=0;entryDy=0;entryPerimeter=0;" edge="1" parent="1" target="NbrCQVKAj3Hku4sAN9eA-19">
          <mxGeometry width="50" height="50" relative="1" as="geometry">
            <mxPoint x="130" y="900" as="sourcePoint" />
            <mxPoint x="200" y="930" as="targetPoint" />
            <Array as="points">
              <mxPoint x="120" y="1030" />
            </Array>
          </mxGeometry>
        </mxCell>
        <mxCell id="NbrCQVKAj3Hku4sAN9eA-21" value="" style="endArrow=none;html=1;rounded=0;" edge="1" parent="1">
          <mxGeometry width="50" height="50" relative="1" as="geometry">
            <mxPoint x="470" y="1070" as="sourcePoint" />
            <mxPoint x="700" y="900" as="targetPoint" />
            <Array as="points">
              <mxPoint x="710" y="1040" />
            </Array>
          </mxGeometry>
        </mxCell>
      </root>
    </mxGraphModel>
  </diagram>
</mxfile>
